<?xml version="1.0" standalone="no"?>
<!DOCTYPE svg PUBLIC "-//W3C//DTD SVG 20010904//EN"
 "http://www.w3.org/TR/2001/REC-SVG-20010904/DTD/svg10.dtd">
<svg version="1.0" xmlns="http://www.w3.org/2000/svg"
 width="30" height="30" viewBox="0 0 512.000000 512.000000"
 preserveAspectRatio="xMidYMid meet">

<g transform="translate(0.000000,512.000000) scale(0.100000,-0.100000)"
fill="#fff" stroke="none">
<path d="M2458 5101 c-31 -10 -79 -35 -105 -54 -67 -50 -2265 -2254 -2291
-2297 -36 -61 -55 -147 -50 -222 11 -144 -58 -68 1210 -1334 1289 -1287 1177
-1188 1343 -1189 82 0 96 3 156 32 187 92 259 309 167 498 -13 26 -300 321
-831 852 l-812 813 1805 2 1805 3 50 23 c155 71 237 261 191 442 -28 110 -95
190 -201 237 -38 17 -133 18 -1840 21 l-1799 2 805 808 c901 902 858 853 867
1002 9 158 -65 283 -206 347 -73 34 -186 40 -264 14z"/>
</g>
</svg>
